<?xml version="1.0" encoding="UTF-8"?>
<svg id="b" data-name="Layer 2" xmlns="http://www.w3.org/2000/svg" width="792" height="107.152" viewBox="0 0 792 107.152">
  <g id="c" data-name="Layer 1">
    <g>
      <g>
        <path d="M271.913,99.55v6.194h-38.568v-6.194c5.535,0,9.031-.211,10.486-.633,1.455-.422,2.183-1.43,2.183-3.026V22.692c0-1.595-.728-2.604-2.183-3.027-1.455-.422-4.951-.633-10.486-.633v-6.193h39.836c11.542,0,20.575,2.182,27.097,6.545,6.522,4.364,9.784,10.488,9.784,18.37,0,6.101-2.137,11.191-6.406,15.273s-10.299,6.921-18.087,8.516l20.974,30.547c1.781,2.628,3.542,4.412,5.28,5.349,1.735.939,4.762,1.548,9.079,1.83l4.645.281v6.194h-26.183l-23.086-38.711c-.94-1.595-1.996-2.721-3.168-3.378-1.175-.656-2.698-.986-4.575-.986h-9.291v33.221c0,1.596.728,2.604,2.183,3.026,1.452.422,4.949.633,10.486.633ZM259.244,19.314v36.881h13.093c8.068,0,14.053-1.524,17.948-4.575,3.893-3.048,5.84-7.672,5.84-13.866s-1.948-10.815-5.84-13.866c-3.895-3.048-9.88-4.575-17.948-4.575h-13.093Z" fill="#fff"/>
        <path d="M379.039,88.571l5.209,3.66c-2.253,4.599-5.681,8.234-10.276,10.909-4.6,2.674-9.622,4.012-15.063,4.012-8.634,0-15.884-3.167-21.747-9.502-5.868-6.334-8.798-14.428-8.798-24.282,0-4.505.702-8.82,2.112-12.951,1.407-4.128,3.423-7.789,6.052-10.98,2.814-3.566,6.169-6.335,10.064-8.305,3.893-1.971,7.955-2.956,12.176-2.956,7.884,0,14.053,2.534,18.511,7.601,4.456,5.068,6.687,11.919,6.687,20.552v4.505h-43.638v.422c0,8.354,1.973,15.016,5.914,19.989,3.941,4.975,9.056,7.461,15.343,7.461,3.66,0,6.803-.774,9.43-2.323,2.627-1.548,5.302-4.152,8.025-7.813ZM358.204,45.074c-4.411,0-8.212,1.759-11.4,5.279-3.193,3.519-5.209,8.283-6.052,14.288h31.389c-.093-6.568-1.291-11.472-3.59-14.71-2.299-3.238-5.749-4.856-10.347-4.856Z" fill="#fff"/>
        <path d="M465.133,101.099v3.097l-19.847,2.956h-1.97v-12.528c-2.253,3.567-5.28,6.546-9.079,8.939-3.802,2.393-7.672,3.59-11.615,3.59-7.601,0-13.888-3.048-18.862-9.15-4.974-6.099-7.46-13.7-7.46-22.804,0-10.98,2.885-19.895,8.657-26.746,5.772-6.849,13.161-10.275,22.171-10.275,3.001,0,5.982.563,8.937,1.689,2.956,1.126,5.37,2.582,7.25,4.363v-27.731c0-1.218-.164-2.111-.493-2.674-.331-.563-1.245-1.172-2.746-1.83l-6.474-2.956v-3.096L453.45.17h1.97v93.469c0,1.221.164,2.111.493,2.674.328.563,1.243,1.174,2.746,1.83l6.474,2.956ZM428.957,44.933c-6.007,0-10.862,2.534-14.57,7.602-3.708,5.067-5.56,11.683-5.56,19.848,0,7.601,1.69,13.819,5.067,18.651,3.38,4.834,7.836,7.249,13.373,7.249,2.908,0,5.679-.704,8.306-2.111,2.627-1.408,5.209-3.566,7.742-6.476v-37.162c-1.407-2.44-3.357-4.316-5.843-5.631-2.486-1.314-5.328-1.971-8.515-1.971Z" fill="#fff"/>
        <path d="M499.636,44.933c-3.754,0-6.783.963-9.079,2.885-2.301,1.925-3.451,4.435-3.451,7.532,0,2.347.937,4.317,2.817,5.912,1.874,1.597,6.052,3.379,12.527,5.35,4.224,1.315,7.321,2.417,9.291,3.308,1.97.893,3.706,1.808,5.209,2.745,2.344,1.689,4.082,3.638,5.209,5.842,1.127,2.206,1.69,4.764,1.69,7.672,0,6.101-2.513,11.12-7.533,15.062-5.022,3.941-11.239,5.912-18.65,5.912-3.66,0-7.346-.517-11.052-1.548-3.708-1.031-7.343-2.58-10.908-4.645l-1.41-17.314h5.492c1.124,5.725,3.236,9.948,6.333,12.669,3.097,2.722,7.321,4.082,12.668,4.082,4.034,0,7.391-1.007,10.066-3.027,2.675-2.016,4.011-4.667,4.011-7.953,0-2.626-.985-4.832-2.956-6.616-1.97-1.782-6.242-3.612-12.81-5.49-4.037-1.218-6.992-2.228-8.869-3.026-1.879-.796-3.473-1.711-4.787-2.745-2.16-1.5-3.776-3.308-4.855-5.42-1.081-2.111-1.619-4.526-1.619-7.249,0-5.912,2.273-10.839,6.828-14.78,4.549-3.942,10.205-5.912,16.963-5.912,3.284,0,6.474.422,9.571,1.267,3.097.844,6.239,2.16,9.43,3.941v16.751h-4.926c-.844-5.349-2.488-9.22-4.926-11.613-2.443-2.393-5.866-3.59-10.276-3.59Z" fill="#fff"/>
        <path d="M577.619,91.668l3.66,4.505c-2.534,3.473-5.701,6.172-9.501,8.094-3.802,1.922-7.813,2.885-12.037,2.885-5.161,0-9.41-1.5-12.739-4.505-3.332-3.002-4.997-6.803-4.997-11.402v-44.763h-9.008v-6.897h9.008v-16.892l12.105-3.519v20.411h20.974v6.897h-20.974v41.385c0,3.567.892,6.264,2.675,8.094,1.781,1.83,4.411,2.745,7.884,2.745,2.251,0,4.433-.563,6.545-1.689,2.112-1.126,4.244-2.908,6.404-5.349Z" fill="#fff"/>
        <path d="M616.432,107.152c-8.728,0-16.025-3.238-21.888-9.713-5.868-6.476-8.798-14.732-8.798-24.775s2.93-18.3,8.798-24.775c5.863-6.476,13.161-9.713,21.888-9.713s16.023,3.237,21.888,9.713c5.863,6.475,8.798,14.734,8.798,24.775s-2.935,18.3-8.798,24.775c-5.866,6.475-13.161,9.713-21.888,9.713ZM616.432,100.114c5.631,0,9.993-2.393,13.09-7.179,3.097-4.786,4.645-11.543,4.645-20.271s-1.548-15.484-4.645-20.27c-3.097-4.786-7.46-7.179-13.09-7.179s-9.996,2.393-13.093,7.179c-3.097,4.786-4.645,11.543-4.645,20.27s1.548,15.484,4.645,20.271c3.097,4.786,7.462,7.179,13.093,7.179Z" fill="#fff"/>
        <path d="M686.087,99.691v6.053h-30.406v-6.053c4.13,0,6.687-.141,7.672-.422.985-.282,1.478-1.032,1.478-2.253v-42.511c0-1.218-.164-2.111-.493-2.674s-1.243-1.172-2.743-1.83l-6.477-2.956v-3.096l19.85-5.771h1.97v12.528c2.721-3.566,6.214-6.546,10.486-8.939,4.269-2.393,8.422-3.59,12.459-3.59,6.004,0,10.675,2.089,14.007,6.264,3.329,4.177,4.997,9.924,4.997,17.244v35.332c0,1.221.493,1.971,1.478,2.253.985.281,3.542.422,7.672.422v6.053h-30.406v-6.053c4.13,0,6.687-.141,7.672-.422.985-.282,1.48-1.032,1.48-2.253v-34.206c0-5.067-1.081-8.915-3.238-11.543-2.16-2.626-5.35-3.941-9.571-3.941-2.91,0-5.891.752-8.94,2.253-3.052,1.502-5.749,3.519-8.094,6.052v41.385c0,1.221.493,1.971,1.478,2.253.985.281,3.542.422,7.672.422Z" fill="#fff"/>
        <path d="M786.791,88.073l5.209,3.66c-2.253,4.599-5.681,8.234-10.276,10.909-4.6,2.674-9.622,4.012-15.063,4.012-8.634,0-15.884-3.167-21.747-9.502-5.868-6.334-8.798-14.428-8.798-24.282,0-4.505.702-8.82,2.112-12.951,1.407-4.128,3.423-7.789,6.052-10.98,2.814-3.566,6.169-6.335,10.064-8.305,3.893-1.971,7.955-2.956,12.176-2.956,7.884,0,14.053,2.534,18.511,7.601,4.456,5.068,6.687,11.919,6.687,20.552v4.505h-43.638v.422c0,8.354,1.973,15.016,5.914,19.989,3.941,4.975,9.056,7.461,15.343,7.461,3.66,0,6.803-.774,9.43-2.323,2.627-1.548,5.302-4.152,8.025-7.813ZM765.956,44.577c-4.411,0-8.212,1.759-11.4,5.279-3.193,3.519-5.209,8.283-6.052,14.288h31.389c-.093-6.568-1.291-11.472-3.59-14.71-2.299-3.238-5.749-4.856-10.347-4.856Z" fill="#fff"/>
      </g>
      <g>
        <polygon points="74.93 105.821 0 105.821 57.293 30.785 80.798 0 107.013 34.632 117.829 49.629 74.93 105.821" fill="#fff" fill-rule="evenodd"/>
        <path d="M140.689,35.86l52.96,69.961h-106.377c17.806-23.32,35.611-46.64,53.417-69.961" fill="#fff"/>
      </g>
    </g>
  </g>
</svg>